<svg xmlns="http://www.w3.org/2000/svg" viewBox="0 0 792 612" enable-background="new 0 0 792 612"><path fill="#0065A1" d="M94.1 2h603.3v610h-603.3z"/><path fill="#fff" stroke="#fff" stroke-miterlimit="10" d="M232.2 2h22.3v159.8h-22.3zM189.9 160.3v-153s.4-4.2 7.7-5.8h15.4v158.7l-23.1.1zM148.4 160.3h23.8v-158.3s-23.8-5.1-23.8 14.2v144.1zM582.1 76.6s3.9-14.1 18-14.9h71.5s13.3 2.3 14.5 26.6v64.5s-4.7 12.9-19.5 13.7h-68.8s-15.2-6.6-15.6-17.6l-.1-72.3zM94.6 208.7h193.7s102.2-107.6 219.1 0h190.1l-.2 18.1h-176.9s79.9 103.4-19.2 199.5c0 0-100.7 100.7-220.6-10 0 0-73.8-85.3-9.2-188.3h-176.8v-19.3z"/><ellipse stroke="#0065A1" stroke-width="12" stroke-miterlimit="10" cx="395.8" cy="314.5" rx="105.3" ry="99.9" fill="none"/></svg>