<svg xmlns="http://www.w3.org/2000/svg" viewBox="0 0 792 612" enable-background="new 0 0 792 612"><path fill="#0065A1" d="M93.4 0h605.2v612h-605.2z"/><path fill="#fff" d="M241.3 145.6s55.1-57.9 141.9-61.3c0 0 154.3-14.5 221.1 139.1 0 0 60.6 128.1-39.3 242.5 0 0-80.6 110.2-232.8 67.5 0 0 33.8-66.1 37.9-110.9 0 0 47.5 68.9 135.7-5.5 0 0 106.1-128.1-11.7-228 0 0-126.1-84.7-232.1 43.4 0 0-61.8 118.9 31.7 162.6 0 0 11-5.5 11.7-36.5 0 0-35.1-32.4-11-88.9 0 0 33.8-91.6 140.5-62.7 0 0 103.3 24.1 32.4 176.3 0 0-22 39.3-62 24.8 0 0-36.5-13.1-15.2-64.1 0 0 44.8-86.6-17.2-94.4 0 0-59.9 7.6-36.5 98.5l-28.2 124.7s-8.3 34.4-3.4 52.4c0 0-106.1-36.5-130.9-167.4-.2.1-29.8-119.1 67.4-212.1z"/></svg>