<svg xmlns="http://www.w3.org/2000/svg" viewBox="0 0 792 612" enable-background="new 0 0 792 612"><path fill="#0065A1" d="M93.4 0h605.2v612h-605.2z"/><path fill="#fff" d="M372.2 253.1s-24.2-91.4 80-108.7c0 0 43.5-4.5 72.7 27.8 0 0 37.5-7.2 55.9-22 0 0-9.2 32.4-36.7 48.4 0 0 32.1-2.4 48.6-12.4 0 0-23.4 33.5-43.8 45.9 0 0 15.6 150.9-134.1 234.7 0 0-95.8 64.7-237.1 0 0 0-6.2-3-17.8-11.4 0 0 68.7 14.4 130.4-36.5 0 0-60.5 1.8-82-62.3 0 0 25.7 6.6 38.3-1.2 0 0-68.3-16.8-68.9-86.8 0 0 16.2 10.8 38.9 9 0 0-64.7-40.7-26.9-118.6-.2.1 62.1 86.9 182.5 94.1z"/></svg>